# xmcd
#
# Track frame offsets: 
#        150
#        76283
#        128864
#        149809
#        200869
#        249442
#
# Disc length: 4078 seconds
#
# Revision: 1
# Processed by: cddbd v1.5.2PL0 Copyright (c) Steve Scherf et al.
# Submitted via: ExactAudioCopy v0.99pb4
#
DISCID=5a0fec06
DTITLE=Anthony Braxton - 23 Standards - CD 1
DYEAR=2003
DGENRE=Jazz
TTITLE0=Crazy Rhythm
TTITLE1=Off Minor
TTITLE2=Desafinado
TTITLE3=26 - 1
TTITLE4=Why Shouldn't I?
TTITLE5=Giant Steps
EXTD=YEAR: 2003
EXTT0=
EXTT1=
EXTT2=
EXTT3=
EXTT4=
EXTT5=
PLAYORDER=
